<?xml version="1.0" standalone="no"?><!DOCTYPE svg PUBLIC "-//W3C//DTD SVG 1.1//EN" "http://www.w3.org/Graphics/SVG/1.1/DTD/svg11.dtd"><svg class="icon" width="200px" height="200.00px" viewBox="0 0 1024 1024" version="1.1" xmlns="http://www.w3.org/2000/svg"><path fill="#ffffff" d="M492 451.6c-8.4 11.1-20.4 19.5-34.8 23.3-75 19.8-211.1 45.3-279.3-6.1C88.6 401.4 70.8 274 138.2 184.7S333 77.6 422.3 145c68.2 51.5 80.9 189.3 82.4 266.9 0.4 14.7-4.3 28.5-12.7 39.7zM192.2 225.3c-44.9 59.5-33.1 144.5 26.5 189.4 31.4 23.7 116.9 21.9 218.4-4.5-2.4-104.9-24.1-187.6-55.5-211.3-59.5-45-144.4-33.1-189.4 26.4zM520.6 411.8c1.5-77.6 14.3-215.4 82.4-266.9 89.3-67.4 216.7-49.6 284.1 39.7s49.6 216.7-39.7 284.1c-68.2 51.5-204.2 25.9-279.3 6.1-14.3-3.8-26.4-12.1-34.8-23.3-8.3-11.1-13-24.9-12.7-39.7z m123.1-213c-31.4 23.7-53.1 106.5-55.5 211.3 101.5 26.4 187.1 28.2 218.4 4.5 59.5-44.9 71.4-129.9 26.5-189.4s-129.8-71.3-189.4-26.4zM504.8 614.3c-1.5 77.6-14.3 215.4-82.4 266.9-89.3 67.4-216.7 49.6-284.1-39.7S88.7 624.8 178 557.4c68.2-51.5 204.2-25.9 279.3-6.1 14.3 3.8 26.4 12.1 34.8 23.3 8.3 11.1 13 24.9 12.7 39.7z m-123.1 213c31.4-23.7 53.1-106.5 55.5-211.3-101.5-26.4-187.1-28.2-218.4-4.5-59.5 44.9-71.4 129.9-26.5 189.4 44.9 59.4 129.8 71.3 189.4 26.4zM533.4 574.5c8.4-11.1 20.4-19.5 34.8-23.3 75-19.8 211.1-45.3 279.3 6.1 89.3 67.4 107.1 194.8 39.7 284.1S692.3 948.6 603 881.2c-68.2-51.5-80.9-189.3-82.4-266.9-0.3-14.8 4.4-28.6 12.8-39.8z m299.8 226.3c44.9-59.5 33.1-144.5-26.5-189.4-31.4-23.7-116.9-21.9-218.4 4.5 2.4 104.9 24.1 187.6 55.5 211.3 59.5 45 144.4 33.1 189.4-26.4z"  /></svg>