<?xml version="1.0" standalone="no"?>
<!DOCTYPE svg PUBLIC "-//W3C//DTD SVG 1.1//EN" "http://www.w3.org/Graphics/SVG/1.1/DTD/svg11.dtd">
<svg t="1626697681310" 
class="icon" 
viewBox="0 0 1024 1024" 
version="1.1" 
xmlns="http://www.w3.org/2000/svg" 
p-id="2424" x
mlns:xlink="http://www.w3.org/1999/xlink" 
width="150px" 
height="150px"><defs>
<style type="text/css">
</style></defs>
<path d="M512 896c-16.592593 0-41.718519-6.257778-67.034074-36.02963-17.161481-20.195556-32.426667-48.64-45.226667-84.29037C374.328889 704.948148 360.296296 611.271111 360.296296 512s14.032593-192.948148 39.442963-263.68c12.8-35.745185 28.065185-64.094815 45.226667-84.29037 25.315556-29.771852 50.441481-36.02963 67.034074-36.02963s41.718519 6.257778 67.034074 36.02963c17.161481 20.195556 32.426667 48.64 45.226667 84.29037C649.671111 319.051852 663.703704 412.728889 663.703704 512s-14.032593 192.948148-39.442963 263.68c-12.8 35.745185-28.065185 64.094815-45.226667 84.29037-25.315556 29.771852-50.441481 36.02963-67.034074 36.02963z m0-725.333333c-11.093333 0-22.660741 7.016296-34.512593 20.954074-13.653333 16.118519-26.642963 40.675556-37.641481 71.111111C416.047407 329.007407 402.962963 417.564444 402.962963 512s13.084444 182.992593 36.882963 249.268148c10.903704 30.435556 23.988148 55.087407 37.641481 71.111111 11.851852 13.937778 23.419259 20.954074 34.512593 20.954074s22.660741-7.016296 34.512593-20.954074c13.653333-16.118519 26.642963-40.675556 37.641481-71.111111C607.952593 694.992593 621.037037 606.435556 621.037037 512s-13.084444-182.992593-36.882963-249.268148c-10.903704-30.435556-23.988148-55.087407-37.641481-71.111111-11.851852-13.937778-23.419259-20.954074-34.512593-20.954074z" p-id="2425"></path><path d="M279.608889 746.951111c-12.8 0-24.651852-0.948148-35.460741-2.939259-38.4-7.016296-56.414815-25.6-64.663704-40.011852-8.343704-14.411852-15.454815-39.253333-2.275555-76.041481 8.912593-25.031111 25.884444-52.337778 50.441481-81.351112 48.545185-57.362963 122.69037-116.337778 208.592593-166.02074 85.997037-49.588148 174.08-84.29037 248.035556-97.65926 37.357037-6.731852 69.499259-7.774815 95.668148-2.939259 38.4 7.016296 56.414815 25.6 64.663703 40.011852 8.343704 14.411852 15.454815 39.253333 2.275556 76.041481-8.912593 25.031111-25.884444 52.337778-50.441482 81.351112-48.545185 57.362963-122.595556 116.337778-208.592592 166.02074l-10.714074-18.488889 10.714074 18.488889c-85.997037 49.588148-174.08 84.29037-248.035556 97.65926-21.902222 3.887407-42.002963 5.878519-60.207407 5.878518z m464.877037-427.235555c-15.644444 0-33.46963 1.706667-52.717037 5.214814-69.30963 12.515556-152.462222 45.416296-234.287408 92.634074S305.588148 520.438519 260.077037 574.198519c-20.859259 24.746667-35.65037 48.260741-42.761481 68.171851-6.162963 17.256296-6.447407 30.814815-0.948149 40.391111 5.499259 9.576296 17.445926 16.118519 35.460741 19.342223 20.764444 3.792593 48.545185 2.74963 80.402963-2.93926 69.30963-12.515556 152.462222-45.416296 234.287408-92.634074 81.825185-47.217778 151.893333-102.874074 197.404444-156.634074 20.859259-24.746667 35.65037-48.260741 42.761481-68.171852 6.162963-17.256296 6.447407-30.814815 0.948149-40.391111-5.499259-9.576296-17.445926-16.118519-35.460741-19.342222-8.154074-1.517037-17.445926-2.275556-27.685926-2.275555z" p-id="2426"></path><path d="M744.391111 746.951111c-18.204444 0-38.305185-1.991111-60.207407-5.973333-73.955556-13.368889-162.133333-48.071111-248.035556-97.659259-85.997037-49.588148-160.047407-108.562963-208.592592-165.925926-24.557037-29.013333-41.434074-56.32-50.441482-81.351112-13.084444-36.788148-5.973333-61.62963 2.275556-76.041481 8.343704-14.411852 26.263704-32.995556 64.663703-40.011852 26.074074-4.740741 58.311111-3.792593 95.668148 2.939259 73.955556 13.368889 162.133333 48.071111 248.035556 97.65926 85.997037 49.588148 160.047407 108.562963 208.592593 166.02074 24.557037 29.013333 41.434074 56.32 50.441481 81.351112 13.084444 36.788148 5.973333 61.62963-2.275555 76.041481-8.343704 14.411852-26.263704 32.995556-64.663704 40.011852-10.808889 1.991111-22.660741 2.939259-35.460741 2.939259zM279.514074 319.715556c-10.24 0-19.531852 0.758519-27.685926 2.275555-18.014815 3.318519-29.866667 9.765926-35.460741 19.342222-5.499259 9.576296-5.214815 23.134815 0.948149 40.391111 7.111111 19.911111 21.902222 43.425185 42.761481 68.171852 45.416296 53.76 115.579259 109.321481 197.404444 156.634074 81.825185 47.217778 165.072593 80.118519 234.287408 92.634074 31.857778 5.783704 59.638519 6.731852 80.402963 2.93926 18.014815-3.318519 29.866667-9.765926 35.460741-19.342223 5.499259-9.576296 5.214815-23.134815-0.948149-40.391111-7.111111-19.911111-21.902222-43.425185-42.761481-68.171851-45.416296-53.76-115.579259-109.321481-197.404444-156.634075-81.825185-47.217778-165.072593-80.118519-234.287408-92.634074-19.247407-3.508148-37.072593-5.214815-52.717037-5.214814z" p-id="2427">
</path>
</svg>